<?xml version="1.0" encoding="UTF-8" standalone="no"?>
<!DOCTYPE svg PUBLIC "-//W3C//DTD SVG 1.1//EN" "http://www.w3.org/Graphics/SVG/1.1/DTD/svg11.dtd">
<svg width="100%" height="100%" viewBox="0 0 256 256" version="1.1" xmlns="http://www.w3.org/2000/svg" xmlns:xlink="http://www.w3.org/1999/xlink" xml:space="preserve" xmlns:serif="http://www.serif.com/" style="fill-rule:evenodd;clip-rule:evenodd;stroke-linecap:square;stroke-miterlimit:5;">
    <g transform="matrix(1,0,0,1,-39.3503,74.2646)">
        <path d="M157.27,3.335L127.03,3.335L65.11,3.335L65.11,32.135L95.35,32.135L95.35,104.135L127.03,104.135L127.03,32.135L157.27,32.135L157.27,3.335Z" style="fill:url(#_Linear1);fill-rule:nonzero;stroke:black;stroke-width:6px;"/>
        <path d="M234.598,46.247L268.87,4.775L268.87,3.335L231.43,3.335L200.47,43.079L200.47,3.335L168.79,3.335L168.79,104.135L200.47,104.135L200.47,87.431L214.582,70.439L235.03,104.135L269.59,104.135L269.59,102.695L234.598,46.247Z" style="fill:url(#_Linear2);fill-rule:nonzero;stroke:black;stroke-width:6px;"/>
    </g>
    <defs>
        <linearGradient id="_Linear1" x1="0" y1="0" x2="1" y2="0" gradientUnits="userSpaceOnUse" gradientTransform="matrix(5.38845e-15,-88,88,5.38845e-15,109.35,96.7354)"><stop offset="0" style="stop-color:rgb(145,19,19);stop-opacity:1"/><stop offset="1" style="stop-color:rgb(255,0,0);stop-opacity:1"/></linearGradient>
        <linearGradient id="_Linear2" x1="0" y1="0" x2="1" y2="0" gradientUnits="userSpaceOnUse" gradientTransform="matrix(5.38845e-15,-88,88,5.38845e-15,109.35,96.7354)"><stop offset="0" style="stop-color:rgb(145,19,19);stop-opacity:1"/><stop offset="1" style="stop-color:rgb(255,0,0);stop-opacity:1"/></linearGradient>
    </defs>
</svg>
